<svg xmlns="http://www.w3.org/2000/svg" width="29" height="32" viewBox="0 0 29 32">
  <path id="indexIcon1" d="M153.768,128h-1.586c1.133.475,1.722,1.716,1.722,3.557v24.885c0,1.841-.529,3.108-1.722,3.557h1.586A3.408,3.408,0,0,0,157,156.443V131.557A3.408,3.408,0,0,0,153.768,128Zm-4.509.017c-.106-.008-.211-.017-.317-.017H131.225A3.412,3.412,0,0,0,128,131.557v24.885A3.412,3.412,0,0,0,131.225,160h17.725c.106,0,.211-.008.317-.017a3.456,3.456,0,0,0,2.908-3.541V131.557A3.468,3.468,0,0,0,149.259,128.017ZM138.875,144l-4.229-2.666L130.417,144v-13.33h8.458Z" transform="translate(-128 -128)" fill="#fffdee"/>
</svg>
