<svg xmlns="http://www.w3.org/2000/svg" xmlns:xlink="http://www.w3.org/1999/xlink" width="382" height="363" viewBox="0 0 382 363">
  <defs>
    <style>
      .cls-1, .cls-5 {
        fill: #e5a600;
      }

      .cls-2, .cls-7 {
        fill: none;
      }

      .cls-2 {
        stroke: #1d2d51;
        stroke-width: 5px;
      }

      .cls-3, .cls-4 {
        fill: #fff;
      }

      .cls-3 {
        font-size: 48px;
      }

      .cls-3, .cls-5 {
        font-family: KosugiMaru-Regular, Kosugi Maru;
      }

      .cls-5 {
        font-size: 69px;
      }

      .cls-6 {
        stroke: none;
      }

      .cls-8 {
        filter: url(#椭圆_21);
      }
    </style>
    <filter id="椭圆_21" x="0" y="17" width="347" height="346" filterUnits="userSpaceOnUse">
      <feOffset dy="3" input="SourceAlpha"/>
      <feGaussianBlur stdDeviation="3" result="blur"/>
      <feFlood flood-opacity="0.2"/>
      <feComposite operator="in" in2="blur"/>
      <feComposite in="SourceGraphic"/>
    </filter>
  </defs>
  <g id="logoyellow" transform="translate(-358 -654)">
    <g class="cls-8" transform="matrix(1, 0, 0, 1, 358, 654)">
      <ellipse id="椭圆_21-2" data-name="椭圆 21" class="cls-1" cx="164.5" cy="164" rx="164.5" ry="164" transform="translate(9 23)"/>
    </g>
    <g id="椭圆_22" data-name="椭圆 22" class="cls-2" transform="translate(411 654)">
      <ellipse class="cls-6" cx="164.5" cy="164" rx="164.5" ry="164"/>
      <ellipse class="cls-7" cx="164.5" cy="164" rx="162" ry="161.5"/>
    </g>
    <g id="组_540" data-name="组 540" transform="translate(-338 457)">
      <text id="日日背單字" class="cls-3" transform="translate(794 443)"><tspan x="0" y="0">日日背單字</tspan></text>
      <g id="组_205" data-name="组 205" transform="translate(853 250)">
        <g id="cards">
          <path id="路径_76" data-name="路径 76" class="cls-4" d="M125.068,157.737h-76.5a9.384,9.384,0,0,0-9.444,9.3v89.848a9.384,9.384,0,0,0,9.444,9.3h76.5a9.384,9.384,0,0,0,9.444-9.3V167.038A9.384,9.384,0,0,0,125.068,157.737Z" transform="translate(-39.127 -139.188)"/>
          <path id="路径_77" data-name="路径 77" class="cls-4" d="M351.848,14.222H278.175a9.455,9.455,0,0,0-9.444,9.444V25.01H325A17.225,17.225,0,0,1,342.2,42.216v78.9h9.646a9.455,9.455,0,0,0,9.444-9.444V23.666A9.456,9.456,0,0,0,351.848,14.222Z" transform="translate(-239.292 -14.222)"/>
        </g>
        <text id="あ" class="cls-5" transform="translate(15 101)"><tspan x="0" y="0">あ</tspan></text>
      </g>
    </g>
  </g>
</svg>
