<svg xmlns="http://www.w3.org/2000/svg" xmlns:xlink="http://www.w3.org/1999/xlink" width="108" height="108" viewBox="0 0 108 108">
  <defs>
    <filter id="矩形_504" x="60" y="60" width="48" height="48" filterUnits="userSpaceOnUse">
      <feOffset dy="3" input="SourceAlpha"/>
      <feGaussianBlur stdDeviation="3" result="blur"/>
      <feFlood flood-opacity="0.161"/>
      <feComposite operator="in" in2="blur"/>
      <feComposite in="SourceGraphic"/>
    </filter>
    <filter id="路径_480" x="30" y="30" width="48" height="48" filterUnits="userSpaceOnUse">
      <feOffset dy="3" input="SourceAlpha"/>
      <feGaussianBlur stdDeviation="3" result="blur-2"/>
      <feFlood flood-opacity="0.161"/>
      <feComposite operator="in" in2="blur-2"/>
      <feComposite in="SourceGraphic"/>
    </filter>
    <filter id="路径_479" x="60" y="0" width="48" height="48" filterUnits="userSpaceOnUse">
      <feOffset dy="3" input="SourceAlpha"/>
      <feGaussianBlur stdDeviation="3" result="blur-3"/>
      <feFlood flood-opacity="0.161"/>
      <feComposite operator="in" in2="blur-3"/>
      <feComposite in="SourceGraphic"/>
    </filter>
    <filter id="路径_481" x="0" y="60" width="48" height="48" filterUnits="userSpaceOnUse">
      <feOffset dy="3" input="SourceAlpha"/>
      <feGaussianBlur stdDeviation="3" result="blur-4"/>
      <feFlood flood-opacity="0.161"/>
      <feComposite operator="in" in2="blur-4"/>
      <feComposite in="SourceGraphic"/>
    </filter>
  </defs>
  <g id="组_602" data-name="组 602" transform="translate(-293 -952)">
    <g transform="matrix(1, 0, 0, 1, 293, 952)" filter="url(#矩形_504)">
      <rect id="矩形_504-2" data-name="矩形 504" width="30" height="30" transform="translate(69 66)" fill="#79872f"/>
    </g>
    <g transform="matrix(1, 0, 0, 1, 293, 952)" filter="url(#路径_480)">
      <path id="路径_480-2" data-name="路径 480" d="M0,0H30V30H0Z" transform="translate(39 36)" fill="#fffdee"/>
    </g>
    <g transform="matrix(1, 0, 0, 1, 293, 952)" filter="url(#路径_479)">
      <path id="路径_479-2" data-name="路径 479" d="M0,0H30V30H0Z" transform="translate(69 6)" fill="#1d2d51"/>
    </g>
    <g transform="matrix(1, 0, 0, 1, 293, 952)" filter="url(#路径_481)">
      <path id="路径_481-2" data-name="路径 481" d="M0,0H30V30H0Z" transform="translate(9 66)" fill="#1d2d51"/>
    </g>
  </g>
</svg>
