<svg xmlns="http://www.w3.org/2000/svg" xmlns:xlink="http://www.w3.org/1999/xlink" width="44" height="44" viewBox="0 0 44 44">
  <defs>
    <clipPath id="clip-path">
      <rect id="矩形_554" data-name="矩形 554" width="44" height="44" rx="8" transform="translate(1662 56)" fill="#fff"/>
    </clipPath>
    <radialGradient id="radial-gradient" cx="0.497" cy="-0.042" r="2" gradientTransform="matrix(0.376, 0, 0, -0.491, 0.696, -0.062)" gradientUnits="objectBoundingBox">
      <stop offset="0.698" stop-color="#f98b25" stop-opacity="0"/>
      <stop offset="1" stop-color="#f98b25"/>
    </radialGradient>
    <radialGradient id="radial-gradient-2" cx="0.789" cy="0.429" r="0.669" gradientTransform="matrix(-0.965, 0.424, 0.335, 0.672, -3.669, 0.901)" gradientUnits="objectBoundingBox">
      <stop offset="0" stop-color="#f98b25"/>
      <stop offset="0.872" stop-color="#f98b25" stop-opacity="0"/>
    </radialGradient>
    <radialGradient id="radial-gradient-3" cx="0.095" cy="0.435" r="0.964" gradientTransform="matrix(-0.101, -0.997, -1.126, 0.062, 0.768, 0.659)" xlink:href="#radial-gradient"/>
    <radialGradient id="radial-gradient-4" cx="0.939" cy="0.543" r="0.964" gradientTransform="matrix(0.101, -0.997, 1.127, 0.062, 0.233, 1.445)" xlink:href="#radial-gradient"/>
    <radialGradient id="radial-gradient-5" cx="0.514" cy="-0.047" r="2" gradientTransform="translate(0.707 -0.07) rotate(180) scale(0.376 0.491)" xlink:href="#radial-gradient"/>
    <radialGradient id="radial-gradient-6" cx="0.21" cy="0.429" r="0.669" gradientTransform="matrix(0.965, 0.424, -0.335, 0.672, 0.151, 0.052)" gradientUnits="objectBoundingBox">
      <stop offset="0" stop-color="#f98b25"/>
      <stop offset="0.944" stop-color="#f98b25" stop-opacity="0"/>
    </radialGradient>
    <linearGradient id="linear-gradient" x1="0.5" y1="-0.004" x2="0.5" y2="0.936" gradientUnits="objectBoundingBox">
      <stop offset="0" stop-color="#f78c1f"/>
      <stop offset="0.495" stop-color="#f37f21"/>
      <stop offset="1" stop-color="#ed6d23"/>
    </linearGradient>
    <radialGradient id="radial-gradient-7" cx="-0.132" cy="0.643" r="0.906" gradientTransform="matrix(0.604, 0.952, -1.386, 0.228, 0.84, 0.622)" xlink:href="#radial-gradient"/>
    <radialGradient id="radial-gradient-8" cx="0.483" cy="-0.035" r="0.69" gradientTransform="matrix(0.639, 0.473, -0.406, 1.045, 0.16, -0.226)" gradientUnits="objectBoundingBox">
      <stop offset="0.393" stop-color="#f98b25"/>
      <stop offset="1" stop-color="#f98b25" stop-opacity="0"/>
    </radialGradient>
    <radialGradient id="radial-gradient-9" cx="0.345" cy="1.012" r="1.911" gradientTransform="matrix(-0.536, -0.387, 0.126, -0.518, 4.415, 5.906)" gradientUnits="objectBoundingBox">
      <stop offset="0.709" stop-color="#f98b25" stop-opacity="0"/>
      <stop offset="1" stop-color="#f98b25"/>
    </radialGradient>
    <radialGradient id="radial-gradient-10" cx="1.516" cy="0.834" r="0.967" gradientTransform="translate(-0.933 -0.186) scale(1.616 1.223)" gradientUnits="objectBoundingBox">
      <stop offset="0.786" stop-color="#f98b25" stop-opacity="0"/>
      <stop offset="1" stop-color="#f98b25"/>
    </radialGradient>
    <radialGradient id="radial-gradient-11" cx="0.94" cy="0.516" r="0.979" gradientTransform="matrix(-1.042, -0.26, 0.262, -0.904, 1.784, 1.227)" gradientUnits="objectBoundingBox">
      <stop offset="0.503" stop-color="#f98b25" stop-opacity="0"/>
      <stop offset="1" stop-color="#f98b25"/>
    </radialGradient>
    <radialGradient id="radial-gradient-12" cx="1.305" cy="0.546" r="0.771" gradientTransform="matrix(1.763, 0.136, -0.241, 0.984, -0.865, -0.169)" xlink:href="#radial-gradient"/>
  </defs>
  <g id="photo1" transform="translate(-1662 -56)" clip-path="url(#clip-path)">
    <g id="person-light-skin-tone-red-hair" transform="translate(1665.22 56)">
      <path id="路径_572" data-name="路径 572" d="M43.549,45.678c-.459-.834.125-1.682,1.124-2.733a9.254,9.254,0,0,0,1.7-9.461c.011-.022-.316-.683-.3-.705l-.657-.033c-.209-.029-7.441-.044-14.68-.044s-14.467.015-14.68.044c0,0-.973.716-.966.738a9.262,9.262,0,0,0,1.7,9.461c1,1.05,1.579,1.9,1.124,2.733-.444.812-1.767.929-1.767.929a2.791,2.791,0,0,0,1.039,1.278,4.323,4.323,0,0,0,2.093.525s2.259,3.125,8.164,3.125h6.574c5.906,0,8.164-3.125,8.164-3.125a4.323,4.323,0,0,0,2.093-.525,2.791,2.791,0,0,0,1.039-1.278s-1.326-.118-1.77-.929Z" transform="translate(-11.952 -17.893)" fill="#e63d00"/>
      <path id="路径_573" data-name="路径 573" d="M47,66.065V62.6l10.493-.83.955,1.175s-2.259,3.125-8.164,3.125Z" transform="translate(-28.229 -32.426)" fill="url(#radial-gradient)"/>
      <path id="路径_574" data-name="路径 574" d="M69.448,57.8c-1.572-2.387,1.913-3.28,1.913-3.28l0,0c-.606.753-.881,1.41-.525,2.06.444.812,1.767.929,1.767.929S70.8,59.12,69.448,57.8Z" transform="translate(-39.247 -28.804)" fill="url(#radial-gradient-2)"/>
      <path id="路径_575" data-name="路径 575" d="M70.4,33.862a9.332,9.332,0,0,1-1.62,9.369,5.806,5.806,0,0,0-1.311,1.807s-3.5-4.888-4.55-7.76a5.973,5.973,0,0,1-.43-1.792,2.39,2.39,0,0,1,.32-1.4c.327-.481,7.4-.624,7.4-.624l.187.4Z" transform="translate(-35.972 -18.271)" fill="url(#radial-gradient-3)"/>
      <path id="路径_576" data-name="路径 576" d="M15.091,33.859a9.34,9.34,0,0,0,1.62,9.365,5.806,5.806,0,0,1,1.311,1.807s3.5-4.888,4.55-7.76A5.973,5.973,0,0,0,23,35.478a2.39,2.39,0,0,0-.32-1.4c-.327-.481-.709-.353-1.263-.353-1.058,0-5.689-.272-6.049-.272C15.374,33.455,15.091,33.859,15.091,33.859Z" transform="translate(-11.958 -18.267)" fill="url(#radial-gradient-4)"/>
      <path id="路径_577" data-name="路径 577" d="M35.585,66.065V62.6l-10.493-.83-.955,1.175S26.4,66.069,32.3,66.069Z" transform="translate(-16.795 -32.426)" fill="url(#radial-gradient-5)"/>
      <path id="路径_578" data-name="路径 578" d="M21.03,57.8c1.572-2.387-1.913-3.28-1.913-3.28l0,0c.606.753.881,1.41.525,2.06-.444.812-1.767.929-1.767.929S19.671,59.12,21.03,57.8Z" transform="translate(-13.663 -28.804)" fill="url(#radial-gradient-6)"/>
      <path id="路径_579" data-name="路径 579" d="M28.28,69.547h-.048C18.87,69.558,9.454,72.3,9.454,78.831v1.484H47.014V78.831c0-6.155-9.332-9.285-18.735-9.285Z" transform="translate(-9.454 -36.315)" fill="url(#linear-gradient)"/>
      <path id="路径_580" data-name="路径 580" d="M40.341,66.168v3.665a3.018,3.018,0,0,0,3.034,3h.606a3.018,3.018,0,0,0,3.034-3V66.168Z" transform="translate(-24.897 -34.626)" fill="#edc391"/>
      <path id="路径_581" data-name="路径 581" d="M43.077,37.043H23a4.2,4.2,0,0,0,0,8.381H43.074a4.2,4.2,0,0,0,0-8.381Z" transform="translate(-14.261 -20.063)" fill="#edc391"/>
      <path id="路径_582" data-name="路径 582" d="M34.7,8.131c-6.391,0-12.311,6.835-12.311,16.67,0,9.784,6.1,14.621,12.311,14.621S47.011,34.586,47.011,24.8c0-9.836-5.92-16.67-12.311-16.67Z" transform="translate(-15.921 -5.607)" fill="#f9ddbd"/>
      <ellipse id="椭圆_27" data-name="椭圆 27" cx="1.811" cy="1.873" rx="1.811" ry="1.873" transform="translate(10.93 18.184)" fill="#312d2d"/>
      <ellipse id="椭圆_28" data-name="椭圆 28" cx="1.811" cy="1.873" rx="1.811" ry="1.873" transform="translate(23.006 18.184)" fill="#312d2d"/>
      <path id="路径_583" data-name="路径 583" d="M34.974,35.489a3.159,3.159,0,0,0-2.655-1.105,3.164,3.164,0,0,0-2.655,1.105.467.467,0,0,0-.007.569.651.651,0,0,0,.7.143,4.671,4.671,0,0,1,3.93,0,.644.644,0,0,0,.7-.143A.467.467,0,0,0,34.974,35.489Z" transform="translate(-19.508 -18.734)" fill="#454140"/>
      <path id="路径_584" data-name="路径 584" d="M58.847,35.489a3.742,3.742,0,0,0-5.311,0,.467.467,0,0,0-.007.569.651.651,0,0,0,.7.143,4.671,4.671,0,0,1,3.93,0,.644.644,0,0,0,.7-.143A.467.467,0,0,0,58.847,35.489Z" transform="translate(-31.445 -18.734)" fill="#454140"/>
      <path id="路径_585" data-name="路径 585" d="M46.721,49.964a.459.459,0,0,0-.118-.029h-2.6a.425.425,0,0,0-.118.029.44.44,0,0,0-.253.6,1.907,1.907,0,0,0,3.342,0,.444.444,0,0,0-.257-.6Z" transform="translate(-26.525 -26.509)" fill="#dba689"/>
      <path id="路径_586" data-name="路径 586" d="M45.878,55.8c-1.172.694-5.006.694-6.174,0a.7.7,0,0,0-1.08.823A5.989,5.989,0,0,0,42.8,58.614a5.919,5.919,0,0,0,4.15-1.991A.7.7,0,0,0,45.878,55.8Z" transform="translate(-24.007 -29.378)" fill="#444"/>
      <path id="路径_587" data-name="路径 587" d="M45.7,10.764c-.9-1.359-2.905-3.173-4.708-3.294-.29-1.734-2.145-3.2-3.941-3.772a11.372,11.372,0,0,0-9.718,1.117c-.353.195-2.633,1.458-4.227.551-1-.569-.981-2.108-.981-2.108a3.534,3.534,0,0,0-2.06,4.514A3.64,3.64,0,0,0,16.835,9.78a5.1,5.1,0,0,0-.316,4.022,4.112,4.112,0,0,0-1.293,4.628c.6,1.634,3,2.387,3,2.387A13.071,13.071,0,0,0,18.9,26.3a.138.138,0,0,0,.264-.015c.364-1.454,1.6-6.537,1.48-7.423a22.793,22.793,0,0,0,8.142-3.754A11.941,11.941,0,0,1,31.4,13.636c4.991-1.987,6.038,1.4,6.038,1.4s3.46-.665,4.5,4.139c.393,1.8.661,4.683.881,6.7a.14.14,0,0,0,.268.04A13.985,13.985,0,0,0,44.3,21.911c.059-.569,1.594-1.322,2.255-3.768a10.234,10.234,0,0,0-.856-7.378Z" transform="translate(-12.207 -3.083)" fill="#e63d00"/>
      <path id="路径_588" data-name="路径 588" d="M68.856,26.326c.059-.569,1.594-1.322,2.255-3.768.07-.261.129-.525.184-.79a10.186,10.186,0,0,0-1.025-6.6,7.945,7.945,0,0,0-4.3-3.236c-.147-.018-.29-.037-.426-.044a2.669,2.669,0,0,1-.2,1.418,2.042,2.042,0,0,1-1.252,1.01C68.5,18.712,68.18,22.393,68.856,26.326Z" transform="translate(-36.775 -7.484)" fill="url(#radial-gradient-7)"/>
      <path id="路径_589" data-name="路径 589" d="M34.969,4.433c-.4.195-.757.389-1.061.555-.353.195-2.633,1.458-4.227.551a2.592,2.592,0,0,1-.981-2.1c-.452.577-1.818,4.694,2.178,4.969,1.723.118,2.784-1.385,3.416-2.655C34.518,5.285,34.874,4.613,34.969,4.433Z" transform="translate(-18.78 -3.261)" fill="url(#radial-gradient-8)"/>
      <path id="路径_590" data-name="路径 590" d="M50.709,3.562c2.688.727,4,2.1,4.437,3.922.129.536.283,5.538-9.266-.147C42.328,5.222,43.3,3.9,43.713,3.75A11.386,11.386,0,0,1,50.709,3.562Z" transform="translate(-26.363 -3.095)" fill="url(#radial-gradient-9)"/>
      <path id="路径_591" data-name="路径 591" d="M26.992,3.43s-.011,0-.022.007h0a3.519,3.519,0,0,0-2.024,4.5L27.8,8.4C25.269,5.836,27,3.423,27,3.423a.053.053,0,0,0-.011.007Z" transform="translate(-17.087 -3.253)" fill="url(#radial-gradient-10)"/>
      <path id="路径_592" data-name="路径 592" d="M23.107,12.741l-1.767-.283c-.07,0-.3.022-.433.04a3.544,3.544,0,0,0-2.8,1.969,5.2,5.2,0,0,0-.477,3.445,4.991,4.991,0,0,0,.165.58,4.6,4.6,0,0,1,2.957-.885Z" transform="translate(-13.485 -7.771)" fill="url(#radial-gradient-11)"/>
      <path id="路径_593" data-name="路径 593" d="M16.42,23.707a4.092,4.092,0,0,0-1.179,4.631c.654,1.612,2.971,2.31,2.971,2.31a2.937,2.937,0,0,0,.7.143l.544-8.043a5.224,5.224,0,0,0-2.872.815C16.6,23.579,16.416,23.7,16.42,23.707Z" transform="translate(-12.196 -12.916)" fill="url(#radial-gradient-12)"/>
    </g>
  </g>
</svg>
