<svg xmlns="http://www.w3.org/2000/svg" xmlns:xlink="http://www.w3.org/1999/xlink" width="42" height="42" viewBox="0 0 42 42">
  <defs>
    <filter id="路径_506" x="0" y="0" width="26" height="26" filterUnits="userSpaceOnUse">
      <feOffset dy="3" input="SourceAlpha"/>
      <feGaussianBlur stdDeviation="3" result="blur"/>
      <feFlood flood-opacity="0.161"/>
      <feComposite operator="in" in2="blur"/>
      <feComposite in="SourceGraphic"/>
    </filter>
    <filter id="路径_507" x="16" y="0" width="26" height="26" filterUnits="userSpaceOnUse">
      <feOffset dy="3" input="SourceAlpha"/>
      <feGaussianBlur stdDeviation="3" result="blur-2"/>
      <feFlood flood-opacity="0.161"/>
      <feComposite operator="in" in2="blur-2"/>
      <feComposite in="SourceGraphic"/>
    </filter>
    <filter id="路径_508" x="0" y="16" width="26" height="26" filterUnits="userSpaceOnUse">
      <feOffset dy="3" input="SourceAlpha"/>
      <feGaussianBlur stdDeviation="3" result="blur-3"/>
      <feFlood flood-opacity="0.161"/>
      <feComposite operator="in" in2="blur-3"/>
      <feComposite in="SourceGraphic"/>
    </filter>
    <filter id="矩形_534" x="8" y="8" width="26" height="26" filterUnits="userSpaceOnUse">
      <feOffset dy="3" input="SourceAlpha"/>
      <feGaussianBlur stdDeviation="3" result="blur-4"/>
      <feFlood flood-opacity="0.161"/>
      <feComposite operator="in" in2="blur-4"/>
      <feComposite in="SourceGraphic"/>
    </filter>
  </defs>
  <g id="samllUp" transform="translate(9 -938)">
    <g transform="matrix(1, 0, 0, 1, -9, 938)" filter="url(#路径_506)">
      <path id="路径_506-2" data-name="路径 506" d="M0,0H8V8H0Z" transform="translate(9 6)" fill="#b3193f"/>
    </g>
    <g transform="matrix(1, 0, 0, 1, -9, 938)" filter="url(#路径_507)">
      <path id="路径_507-2" data-name="路径 507" d="M0,0H8V8H0Z" transform="translate(25 6)" fill="#e5a600"/>
    </g>
    <g transform="matrix(1, 0, 0, 1, -9, 938)" filter="url(#路径_508)">
      <path id="路径_508-2" data-name="路径 508" d="M0,0H8V8H0Z" transform="translate(9 22)" fill="#e5a600"/>
    </g>
    <g transform="matrix(1, 0, 0, 1, -9, 938)" filter="url(#矩形_534)">
      <rect id="矩形_534-2" data-name="矩形 534" width="8" height="8" transform="translate(17 14)" fill="#fffdee"/>
    </g>
  </g>
</svg>
