<svg xmlns="http://www.w3.org/2000/svg" width="60" height="51" viewBox="0 0 60 51">
  <g id="bean" transform="translate(-0.84 -73.47)">
    <path id="路径_488" data-name="路径 488" d="M31.784,124.47A31.618,31.618,0,0,1,7.99,113.785a29.147,29.147,0,0,1-4.84-7.233,22.932,22.932,0,0,1,5.7-27.422A23.733,23.733,0,0,1,41.925,81.38c2.722,3.216,1.9,3.216,5.982,3.917h0a19.766,19.766,0,0,1,8.837,5.3,16.433,16.433,0,0,1,1.373,19.918,1.782,1.782,0,0,1-.142.187A31.693,31.693,0,0,1,31.784,124.47ZM24.176,76.157a20.688,20.688,0,0,0-13.533,5,20.264,20.264,0,0,0-5.028,24.247,26.242,26.242,0,0,0,4.429,6.611,29.068,29.068,0,0,0,40.636,2.773,28.7,28.7,0,0,0,4.048-4.275,1.3,1.3,0,0,1,.191-.309,13.775,13.775,0,0,0-.37-17.842,14.11,14.11,0,0,0-7.573-4.45l-.844-.159.007-.036c-3.043-.721-3.513-1.153-6.424-4.591A20.65,20.65,0,0,0,24.176,76.157Z" transform="translate(0)" fill="#fff"/>
    <path id="路径_489" data-name="路径 489" d="M522.041,254.309a1.374,1.374,0,0,1-.486-.089c-5.725-2.169-7.143-6.047-7.2-6.212a1.371,1.371,0,0,1,2.583-.921c.055.145,1.156,2.888,5.589,4.567a1.372,1.372,0,0,1-.486,2.655Z" transform="translate(-483.451 -162.762)" fill="#fff"/>
    <path id="路径_490" data-name="路径 490" d="M743.69,399.375a2.061,2.061,0,0,1-1.456-.6,2.085,2.085,0,0,1-.6-1.454,2.036,2.036,0,0,1,.6-1.454,2.123,2.123,0,0,1,2.908,0,2.032,2.032,0,0,1,.6,1.454,2.08,2.08,0,0,1-.6,1.454A2.052,2.052,0,0,1,743.69,399.375Z" transform="translate(-697.493 -303.241)" fill="#fff"/>
  </g>
</svg>
