<svg xmlns="http://www.w3.org/2000/svg" xmlns:xlink="http://www.w3.org/1999/xlink" width="170" height="170" viewBox="0 0 170 170">
  <defs>
    <style>
      .cls-1 {
        fill: #1d2d51;
      }

      .cls-2 {
        filter: url(#矩形_513);
      }

      .cls-3 {
        filter: url(#路径_483);
      }

      .cls-4 {
        filter: url(#矩形_511);
      }

      .cls-5 {
        filter: url(#路径_479);
      }

      .cls-6 {
        filter: url(#路径_480);
      }

      .cls-7 {
        filter: url(#矩形_508);
      }

      .cls-8 {
        filter: url(#矩形_507);
      }

      .cls-9 {
        filter: url(#路径_482);
      }

      .cls-10 {
        filter: url(#路径_481);
      }

      .cls-11 {
        filter: url(#矩形_504);
      }

      .cls-12 {
        filter: url(#路径_484);
      }

      .cls-13 {
        filter: url(#路径_485);
      }
    </style>
    <filter id="路径_485" x="122" y="122" width="48" height="48" filterUnits="userSpaceOnUse">
      <feOffset dy="3" input="SourceAlpha"/>
      <feGaussianBlur stdDeviation="3" result="blur"/>
      <feFlood flood-opacity="0.161"/>
      <feComposite operator="in" in2="blur"/>
      <feComposite in="SourceGraphic"/>
    </filter>
    <filter id="路径_484" x="122" y="61" width="48" height="48" filterUnits="userSpaceOnUse">
      <feOffset dy="3" input="SourceAlpha"/>
      <feGaussianBlur stdDeviation="3" result="blur-2"/>
      <feFlood flood-opacity="0.161"/>
      <feComposite operator="in" in2="blur-2"/>
      <feComposite in="SourceGraphic"/>
    </filter>
    <filter id="矩形_504" x="91.5" y="91.5" width="48" height="48" filterUnits="userSpaceOnUse">
      <feOffset dy="3" input="SourceAlpha"/>
      <feGaussianBlur stdDeviation="3" result="blur-3"/>
      <feFlood flood-opacity="0.161"/>
      <feComposite operator="in" in2="blur-3"/>
      <feComposite in="SourceGraphic"/>
    </filter>
    <filter id="路径_481" x="91.5" y="30.5" width="48" height="48" filterUnits="userSpaceOnUse">
      <feOffset dy="3" input="SourceAlpha"/>
      <feGaussianBlur stdDeviation="3" result="blur-4"/>
      <feFlood flood-opacity="0.161"/>
      <feComposite operator="in" in2="blur-4"/>
      <feComposite in="SourceGraphic"/>
    </filter>
    <filter id="路径_482" x="122" y="0" width="48" height="48" filterUnits="userSpaceOnUse">
      <feOffset dy="3" input="SourceAlpha"/>
      <feGaussianBlur stdDeviation="3" result="blur-5"/>
      <feFlood flood-opacity="0.161"/>
      <feComposite operator="in" in2="blur-5"/>
      <feComposite in="SourceGraphic"/>
    </filter>
    <filter id="矩形_507" x="61" y="122" width="48" height="48" filterUnits="userSpaceOnUse">
      <feOffset dy="3" input="SourceAlpha"/>
      <feGaussianBlur stdDeviation="3" result="blur-6"/>
      <feFlood flood-opacity="0.161"/>
      <feComposite operator="in" in2="blur-6"/>
      <feComposite in="SourceGraphic"/>
    </filter>
    <filter id="矩形_508" x="61" y="0" width="48" height="48" filterUnits="userSpaceOnUse">
      <feOffset dy="3" input="SourceAlpha"/>
      <feGaussianBlur stdDeviation="3" result="blur-7"/>
      <feFlood flood-opacity="0.161"/>
      <feComposite operator="in" in2="blur-7"/>
      <feComposite in="SourceGraphic"/>
    </filter>
    <filter id="路径_480" x="61" y="61" width="48" height="48" filterUnits="userSpaceOnUse">
      <feOffset dy="3" input="SourceAlpha"/>
      <feGaussianBlur stdDeviation="3" result="blur-8"/>
      <feFlood flood-opacity="0.161"/>
      <feComposite operator="in" in2="blur-8"/>
      <feComposite in="SourceGraphic"/>
    </filter>
    <filter id="路径_479" x="30.5" y="91.5" width="48" height="48" filterUnits="userSpaceOnUse">
      <feOffset dy="3" input="SourceAlpha"/>
      <feGaussianBlur stdDeviation="3" result="blur-9"/>
      <feFlood flood-opacity="0.161"/>
      <feComposite operator="in" in2="blur-9"/>
      <feComposite in="SourceGraphic"/>
    </filter>
    <filter id="矩形_511" x="30.5" y="30.5" width="48" height="48" filterUnits="userSpaceOnUse">
      <feOffset dy="3" input="SourceAlpha"/>
      <feGaussianBlur stdDeviation="3" result="blur-10"/>
      <feFlood flood-opacity="0.161"/>
      <feComposite operator="in" in2="blur-10"/>
      <feComposite in="SourceGraphic"/>
    </filter>
    <filter id="路径_483" x="0" y="122" width="48" height="48" filterUnits="userSpaceOnUse">
      <feOffset dy="3" input="SourceAlpha"/>
      <feGaussianBlur stdDeviation="3" result="blur-11"/>
      <feFlood flood-opacity="0.161"/>
      <feComposite operator="in" in2="blur-11"/>
      <feComposite in="SourceGraphic"/>
    </filter>
    <filter id="矩形_513" x="0" y="61" width="48" height="48" filterUnits="userSpaceOnUse">
      <feOffset dy="3" input="SourceAlpha"/>
      <feGaussianBlur stdDeviation="3" result="blur-12"/>
      <feFlood flood-opacity="0.161"/>
      <feComposite operator="in" in2="blur-12"/>
      <feComposite in="SourceGraphic"/>
    </filter>
  </defs>
  <g id="组_545" data-name="组 545" transform="translate(-1623 -884)">
    <g class="cls-13" transform="matrix(1, 0, 0, 1, 1623, 884)">
      <path id="路径_485-2" data-name="路径 485" class="cls-1" d="M0,0H30V30H0Z" transform="translate(131 128)"/>
    </g>
    <g class="cls-12" transform="matrix(1, 0, 0, 1, 1623, 884)">
      <path id="路径_484-2" data-name="路径 484" class="cls-1" d="M0,0H30V30H0Z" transform="translate(131 67)"/>
    </g>
    <g class="cls-11" transform="matrix(1, 0, 0, 1, 1623, 884)">
      <rect id="矩形_504-2" data-name="矩形 504" class="cls-1" width="30" height="30" transform="translate(100.5 97.5)"/>
    </g>
    <g class="cls-10" transform="matrix(1, 0, 0, 1, 1623, 884)">
      <path id="路径_481-2" data-name="路径 481" class="cls-1" d="M0,0H30V30H0Z" transform="translate(100.5 36.5)"/>
    </g>
    <g class="cls-9" transform="matrix(1, 0, 0, 1, 1623, 884)">
      <path id="路径_482-2" data-name="路径 482" class="cls-1" d="M0,0H30V30H0Z" transform="translate(131 6)"/>
    </g>
    <g class="cls-8" transform="matrix(1, 0, 0, 1, 1623, 884)">
      <rect id="矩形_507-2" data-name="矩形 507" class="cls-1" width="30" height="30" transform="translate(70 128)"/>
    </g>
    <g class="cls-7" transform="matrix(1, 0, 0, 1, 1623, 884)">
      <rect id="矩形_508-2" data-name="矩形 508" class="cls-1" width="30" height="30" transform="translate(70 6)"/>
    </g>
    <g class="cls-6" transform="matrix(1, 0, 0, 1, 1623, 884)">
      <path id="路径_480-2" data-name="路径 480" class="cls-1" d="M0,0H30V30H0Z" transform="translate(70 67)"/>
    </g>
    <g class="cls-5" transform="matrix(1, 0, 0, 1, 1623, 884)">
      <path id="路径_479-2" data-name="路径 479" class="cls-1" d="M0,0H30V30H0Z" transform="translate(39.5 97.5)"/>
    </g>
    <g class="cls-4" transform="matrix(1, 0, 0, 1, 1623, 884)">
      <rect id="矩形_511-2" data-name="矩形 511" class="cls-1" width="30" height="30" transform="translate(39.5 36.5)"/>
    </g>
    <g class="cls-3" transform="matrix(1, 0, 0, 1, 1623, 884)">
      <path id="路径_483-2" data-name="路径 483" class="cls-1" d="M0,0H30V30H0Z" transform="translate(9 128)"/>
    </g>
    <g class="cls-2" transform="matrix(1, 0, 0, 1, 1623, 884)">
      <rect id="矩形_513-2" data-name="矩形 513" class="cls-1" width="30" height="30" transform="translate(9 67)"/>
    </g>
  </g>
</svg>
