<svg xmlns="http://www.w3.org/2000/svg" xmlns:xlink="http://www.w3.org/1999/xlink" width="88" height="88" viewBox="0 0 88 88">
  <defs>
    <filter id="矩形_440" x="-9" y="-6" width="106" height="106" filterUnits="userSpaceOnUse">
      <feOffset dy="3" input="SourceAlpha"/>
      <feGaussianBlur stdDeviation="3" result="blur"/>
      <feFlood flood-color="#e5a600"/>
      <feComposite operator="in" in2="blur"/>
      <feComposite in="SourceGraphic"/>
    </filter>
    <clipPath id="clip-path">
      <g transform="matrix(1, 0, 0, 1, 0, 0)" filter="url(#矩形_440)">
        <rect id="矩形_440-2" data-name="矩形 440" width="88" height="88" rx="8" transform="translate(1670 56)" fill="#fffdee" stroke="#e5a600" stroke-width="1"/>
      </g>
    </clipPath>
    <radialGradient id="radial-gradient" cx="0.497" cy="-0.042" r="2" gradientTransform="matrix(0.376, 0, 0, -0.491, 0.696, -0.062)" gradientUnits="objectBoundingBox">
      <stop offset="0.698" stop-color="#f98b25" stop-opacity="0"/>
      <stop offset="1" stop-color="#f98b25"/>
    </radialGradient>
    <radialGradient id="radial-gradient-2" cx="0.789" cy="0.429" r="0.669" gradientTransform="matrix(-0.965, 0.424, 0.335, 0.672, -3.669, 0.901)" gradientUnits="objectBoundingBox">
      <stop offset="0" stop-color="#f98b25"/>
      <stop offset="0.872" stop-color="#f98b25" stop-opacity="0"/>
    </radialGradient>
    <radialGradient id="radial-gradient-3" cx="0.095" cy="0.435" r="0.964" gradientTransform="matrix(-0.101, -0.997, -1.126, 0.062, 0.768, 0.659)" xlink:href="#radial-gradient"/>
    <radialGradient id="radial-gradient-4" cx="0.939" cy="0.543" r="0.964" gradientTransform="matrix(0.101, -0.997, 1.127, 0.062, 0.233, 1.445)" xlink:href="#radial-gradient"/>
    <radialGradient id="radial-gradient-5" cx="0.514" cy="-0.047" r="2" gradientTransform="translate(0.707 -0.07) rotate(180) scale(0.376 0.491)" xlink:href="#radial-gradient"/>
    <radialGradient id="radial-gradient-6" cx="0.21" cy="0.429" r="0.669" gradientTransform="matrix(0.965, 0.424, -0.335, 0.672, 0.151, 0.052)" gradientUnits="objectBoundingBox">
      <stop offset="0" stop-color="#f98b25"/>
      <stop offset="0.944" stop-color="#f98b25" stop-opacity="0"/>
    </radialGradient>
    <linearGradient id="linear-gradient" x1="0.5" y1="-0.004" x2="0.5" y2="0.936" gradientUnits="objectBoundingBox">
      <stop offset="0" stop-color="#f78c1f"/>
      <stop offset="0.495" stop-color="#f37f21"/>
      <stop offset="1" stop-color="#ed6d23"/>
    </linearGradient>
    <radialGradient id="radial-gradient-7" cx="-0.132" cy="0.643" r="0.906" gradientTransform="matrix(0.604, 0.952, -1.386, 0.228, 0.84, 0.622)" xlink:href="#radial-gradient"/>
    <radialGradient id="radial-gradient-8" cx="0.483" cy="-0.035" r="0.69" gradientTransform="matrix(0.639, 0.473, -0.406, 1.045, 0.16, -0.226)" gradientUnits="objectBoundingBox">
      <stop offset="0.393" stop-color="#f98b25"/>
      <stop offset="1" stop-color="#f98b25" stop-opacity="0"/>
    </radialGradient>
    <radialGradient id="radial-gradient-9" cx="0.345" cy="1.012" r="1.911" gradientTransform="matrix(-0.536, -0.387, 0.126, -0.518, 4.415, 5.906)" gradientUnits="objectBoundingBox">
      <stop offset="0.709" stop-color="#f98b25" stop-opacity="0"/>
      <stop offset="1" stop-color="#f98b25"/>
    </radialGradient>
    <radialGradient id="radial-gradient-10" cx="1.516" cy="0.834" r="0.967" gradientTransform="translate(-0.933 -0.186) scale(1.616 1.223)" gradientUnits="objectBoundingBox">
      <stop offset="0.786" stop-color="#f98b25" stop-opacity="0"/>
      <stop offset="1" stop-color="#f98b25"/>
    </radialGradient>
    <radialGradient id="radial-gradient-11" cx="0.94" cy="0.516" r="0.979" gradientTransform="matrix(-1.042, -0.26, 0.262, -0.904, 1.784, 1.227)" gradientUnits="objectBoundingBox">
      <stop offset="0.503" stop-color="#f98b25" stop-opacity="0"/>
      <stop offset="1" stop-color="#f98b25"/>
    </radialGradient>
    <radialGradient id="radial-gradient-12" cx="1.305" cy="0.546" r="0.771" gradientTransform="matrix(1.763, 0.136, -0.241, 0.984, -0.865, -0.169)" xlink:href="#radial-gradient"/>
  </defs>
  <g id="photo" transform="translate(-1670 -56)">
    <g id="photo-2" data-name="photo" clip-path="url(#clip-path)">
      <g id="person-light-skin-tone-red-hair" transform="translate(1666.986 52.917)">
        <path id="路径_513" data-name="路径 513" d="M72.646,58.653c-.918-1.667.25-3.364,2.248-5.465A18.507,18.507,0,0,0,78.3,34.266c.022-.044-.632-1.366-.61-1.41l-1.315-.066c-.419-.059-14.882-.088-29.36-.088s-28.934.029-29.36.088c0,0-1.947,1.432-1.932,1.476a18.523,18.523,0,0,0,3.408,18.922c1.991,2.1,3.159,3.8,2.248,5.465-.889,1.623-3.533,1.858-3.533,1.858a5.582,5.582,0,0,0,2.079,2.556,8.646,8.646,0,0,0,4.187,1.05s4.517,6.251,16.329,6.251H53.592c11.811,0,16.329-6.251,16.329-6.251a8.646,8.646,0,0,0,4.187-1.05,5.582,5.582,0,0,0,2.079-2.556s-2.652-.235-3.54-1.858Z" fill="#e63d00"/>
        <path id="路径_514" data-name="路径 514" d="M47,70.362V63.428l20.986-1.66,1.91,2.351s-4.517,6.251-16.329,6.251Z" fill="url(#radial-gradient)"/>
        <path id="路径_515" data-name="路径 515" d="M69.855,61.085c-3.144-4.775,3.827-6.559,3.827-6.559l.007.007c-1.212,1.506-1.763,2.821-1.05,4.121.889,1.623,3.533,1.858,3.533,1.858S72.566,63.714,69.855,61.085Z" fill="url(#radial-gradient-2)"/>
        <path id="路径_516" data-name="路径 516" d="M78.317,34.266c3.122,7.6-.162,15.433-3.239,18.738-.426.455-2.211,2.211-2.622,3.614,0,0-7.008-9.777-9.1-15.521a11.946,11.946,0,0,1-.859-3.585,4.78,4.78,0,0,1,.639-2.806c.654-.962,14.808-1.249,14.808-1.249l.375.808Z" fill="url(#radial-gradient-3)"/>
        <path id="路径_517" data-name="路径 517" d="M15.719,34.266C12.6,41.869,15.888,49.7,18.959,53c.426.455,2.211,2.211,2.622,3.614,0,0,7.008-9.777,9.1-15.521a11.946,11.946,0,0,0,.859-3.585A4.78,4.78,0,0,0,30.9,34.7c-.654-.962-1.418-.705-2.527-.705-2.115,0-11.378-.544-12.1-.544.007.007-.558.815-.558.815Z" fill="url(#radial-gradient-4)"/>
        <path id="路径_518" data-name="路径 518" d="M47.033,70.362V63.428l-20.986-1.66-1.91,2.351s4.517,6.251,16.329,6.251Z" fill="url(#radial-gradient-5)"/>
        <path id="路径_519" data-name="路径 519" d="M24.189,61.085c3.144-4.775-3.827-6.559-3.827-6.559l-.007.007c1.212,1.506,1.763,2.821,1.05,4.121-.889,1.623-3.533,1.858-3.533,1.858S21.471,63.714,24.189,61.085Z" fill="url(#radial-gradient-6)"/>
        <path id="路径_520" data-name="路径 520" d="M47.106,69.547h-.1c-18.724.022-37.557,5.509-37.557,18.569v2.968H84.575V88.116C84.568,75.8,65.911,69.547,47.106,69.547Z" fill="url(#linear-gradient)"/>
        <path id="路径_521" data-name="路径 521" d="M40.341,66.168V73.5a6.036,6.036,0,0,0,6.067,6H47.62a6.036,6.036,0,0,0,6.067-6V66.168Z" fill="#edc391"/>
        <path id="路径_522" data-name="路径 522" d="M67.086,37.043H26.936a8.4,8.4,0,0,0,0,16.762H67.079a8.4,8.4,0,0,0,.007-16.762Z" fill="#edc391"/>
        <path id="路径_523" data-name="路径 523" d="M47.011,8.131c-12.781,0-24.622,13.67-24.622,33.341,0,19.568,12.2,29.242,24.622,29.242s24.622-9.674,24.622-29.242c0-19.671-11.841-33.341-24.622-33.341Z" fill="#f9ddbd"/>
        <ellipse id="椭圆_23" data-name="椭圆 23" cx="3.621" cy="3.746" rx="3.621" ry="3.746" transform="translate(31.314 39.452)" fill="#312d2d"/>
        <ellipse id="椭圆_24" data-name="椭圆 24" cx="3.621" cy="3.746" rx="3.621" ry="3.746" transform="translate(55.465 39.452)" fill="#312d2d"/>
        <path id="路径_524" data-name="路径 524" d="M40.385,36.595c-.683-.9-2.255-2.211-5.311-2.211s-4.635,1.315-5.311,2.211a.935.935,0,0,0-.015,1.139,1.3,1.3,0,0,0,1.4.286,10.17,10.17,0,0,1,3.93-.867A10.17,10.17,0,0,1,39,38.02a1.289,1.289,0,0,0,1.4-.286A.935.935,0,0,0,40.385,36.595Z" fill="#454140"/>
        <path id="路径_525" data-name="路径 525" d="M64.258,36.595c-.683-.9-2.255-2.211-5.311-2.211s-4.635,1.315-5.311,2.211a.935.935,0,0,0-.015,1.139,1.3,1.3,0,0,0,1.4.286,9.342,9.342,0,0,1,7.86,0,1.289,1.289,0,0,0,1.4-.286A.935.935,0,0,0,64.258,36.595Z" fill="#454140"/>
        <path id="路径_526" data-name="路径 526" d="M49.846,49.993a.919.919,0,0,0-.235-.059H44.418a.849.849,0,0,0-.235.059.88.88,0,0,0-.507,1.2,3.815,3.815,0,0,0,6.684,0,.888.888,0,0,0-.514-1.2Z" fill="#dba689"/>
        <path id="路径_527" data-name="路径 527" d="M53.2,55.928c-2.343,1.388-10.012,1.388-12.348,0a1.406,1.406,0,0,0-2.16,1.645c.551,1.2,4.738,3.981,8.352,3.981s7.749-2.784,8.3-3.981A1.4,1.4,0,0,0,53.2,55.928Z" fill="#444"/>
        <path id="路径_528" data-name="路径 528" d="M76.444,18.444c-1.792-2.718-5.81-6.346-9.417-6.589-.58-3.467-4.29-6.405-7.882-7.544C49.427,1.234,43.1,4.686,39.709,6.545c-.705.389-5.267,2.916-8.455,1.1-2-1.139-1.961-4.216-1.961-4.216s-6.266,2.387-4.121,9.028a7.281,7.281,0,0,0-6.464,4.018,10.208,10.208,0,0,0-.632,8.043,8.224,8.224,0,0,0-2.586,9.255c1.2,3.269,6,4.775,6,4.775A26.141,26.141,0,0,0,22.83,49.523a.277.277,0,0,0,.529-.029c.727-2.909,3.21-13.075,2.96-14.845A45.586,45.586,0,0,0,42.6,27.141a23.882,23.882,0,0,1,5.237-2.953c9.982-3.974,12.076,2.806,12.076,2.806s6.919-1.33,9.006,8.278c.786,3.6,1.322,9.365,1.763,13.4a.28.28,0,0,0,.536.081,27.971,27.971,0,0,0,2.424-8.014c.118-1.139,3.188-2.644,4.51-7.536,1.756-6.523-.411-12.8-1.711-14.757Z" fill="#e63d00"/>
        <path id="路径_529" data-name="路径 529" d="M73.616,40.767c.118-1.139,3.188-2.644,4.51-7.536.14-.522.257-1.05.367-1.579,1.072-5.942-.852-11.4-2.049-13.207-1.66-2.512-5.215-5.8-8.594-6.471-.294-.037-.58-.073-.852-.088a5.338,5.338,0,0,1-.4,2.835,4.084,4.084,0,0,1-2.5,2.02c8.8,8.8,8.168,16.16,9.52,24.027Z" fill="url(#radial-gradient-7)"/>
        <path id="路径_530" data-name="路径 530" d="M41.832,5.428c-.8.389-1.513.779-2.123,1.109-.705.389-5.267,2.916-8.455,1.1-1.961-1.117-1.961-4.1-1.961-4.2-.9,1.153-3.636,9.387,4.356,9.938,3.445.235,5.568-2.769,6.831-5.311.448-.933,1.161-2.277,1.352-2.637Z" fill="url(#radial-gradient-8)"/>
        <path id="路径_531" data-name="路径 531" d="M58.146,4.018c5.377,1.454,8,4.194,8.873,7.845.257,1.072.566,11.077-18.533-.294-7.1-4.231-5.164-6.875-4.334-7.176a22.772,22.772,0,0,1,13.993-.375Z" fill="url(#radial-gradient-9)"/>
        <path id="路径_532" data-name="路径 532" d="M29.264,3.438c-.007.007-.022.007-.044.015h-.007a7.037,7.037,0,0,0-4.047,9.006l5.715.918c-5.061-5.127-1.594-9.953-1.594-9.953a.106.106,0,0,0-.022.015Z" fill="url(#radial-gradient-10)"/>
        <path id="路径_533" data-name="路径 533" d="M28.7,13.023l-3.533-.566c-.14,0-.61.044-.867.081a7.088,7.088,0,0,0-5.6,3.937,10.409,10.409,0,0,0-.955,6.89,9.983,9.983,0,0,0,.331,1.161s1.748-1.66,5.913-1.77Z" fill="url(#radial-gradient-11)"/>
        <path id="路径_534" data-name="路径 534" d="M17.9,24.666a8.183,8.183,0,0,0-2.358,9.263c1.307,3.225,5.942,4.62,5.942,4.62a5.873,5.873,0,0,0,1.4.286l1.087-16.087a10.447,10.447,0,0,0-5.744,1.631C18.253,24.409,17.893,24.644,17.9,24.666Z" fill="url(#radial-gradient-12)"/>
      </g>
    </g>
  </g>
</svg>
