<svg id="punck1" xmlns="http://www.w3.org/2000/svg" width="44" height="44" viewBox="0 0 44 44">
  <rect id="矩形_446" data-name="矩形 446" width="44" height="44" rx="8" fill="#b3193f"/>
  <g id="日历_打卡" data-name="日历、打卡" transform="translate(5.36 5.36)">
    <path id="路径_244" data-name="路径 244" d="M89.524,106.667a7.93,7.93,0,0,1,7.976,7.884v15.767a7.93,7.93,0,0,1-7.976,7.884H71.976A7.93,7.93,0,0,1,64,130.318V114.551a7.93,7.93,0,0,1,7.976-7.884H89.524Zm0,2.759H71.976a5.157,5.157,0,0,0-5.181,4.941l0,.184v15.767a5.152,5.152,0,0,0,5,5.121l.186,0H89.524a5.157,5.157,0,0,0,5.181-4.941l0-.184V114.551a5.152,5.152,0,0,0-5-5.121l-.186,0Z" transform="translate(-64 -104.702)" fill="#fff"/>
    <path id="路径_245" data-name="路径 245" d="M315.392,67.7a1.376,1.376,0,0,1,2.062,1.817l-.087.1-5.512,5.68a1.376,1.376,0,0,1-1.784.163l-.1-.079-3.92-3.367a1.376,1.376,0,0,1,1.694-2.165l.1.078,2.938,2.523Zm-10.017-14.37a1.376,1.376,0,0,1,1.371,1.262l0,.113v4.323a1.376,1.376,0,0,1-2.746.113l0-.113V54.709a1.376,1.376,0,0,1,1.376-1.376Zm12.38,0a1.376,1.376,0,0,1,1.371,1.262l0,.113v4.323a1.376,1.376,0,0,1-2.746.113l0-.113V54.709a1.376,1.376,0,0,1,1.376-1.376Z" transform="translate(-294.916 -53.333)" fill="#fff"/>
  </g>
</svg>
