<svg xmlns="http://www.w3.org/2000/svg" width="66" height="66" viewBox="0 0 66 66">
  <g id="punck" transform="translate(-2330 1878)">
    <rect id="矩形_446" data-name="矩形 446" width="66" height="66" rx="8" transform="translate(2330 -1878)" fill="#b3193f"/>
    <g id="日历_打卡" data-name="日历、打卡" transform="translate(2274 -1923.333)">
      <path id="路径_244" data-name="路径 244" d="M102.1,106.667A11.836,11.836,0,0,1,114,118.434v23.534a11.836,11.836,0,0,1-11.9,11.767H75.9A11.836,11.836,0,0,1,64,141.967V118.434a11.836,11.836,0,0,1,11.9-11.767H102.1Zm0,4.118H75.9a7.7,7.7,0,0,0-7.733,7.374l0,.274v23.534a7.69,7.69,0,0,0,7.461,7.644l.277,0H102.1a7.7,7.7,0,0,0,7.733-7.374l0-.274V118.434a7.69,7.69,0,0,0-7.461-7.644l-.277,0Z" transform="translate(0 -50.401)" fill="#fff"/>
      <path id="路径_245" data-name="路径 245" d="M321,74.78a2.053,2.053,0,0,1,3.077,2.711l-.13.149-8.228,8.478a2.053,2.053,0,0,1-2.662.244l-.149-.117-5.851-5.025a2.053,2.053,0,0,1,2.528-3.231l.147.116,4.385,3.766L321,74.78ZM306.053,53.333a2.053,2.053,0,0,1,2.046,1.884l.007.169v6.453a2.053,2.053,0,0,1-4.1.169L304,61.839V55.386a2.054,2.054,0,0,1,2.053-2.053Zm18.478,0a2.053,2.053,0,0,1,2.046,1.884l.007.169v6.453a2.053,2.053,0,0,1-4.1.169l-.007-.169V55.386a2.054,2.054,0,0,1,2.053-2.053Z" transform="translate(-226.442)" fill="#fff"/>
    </g>
  </g>
</svg>
