<svg xmlns="http://www.w3.org/2000/svg" xmlns:xlink="http://www.w3.org/1999/xlink" width="42" height="42" viewBox="0 0 42 42">
  <defs>
    <filter id="路径_509" x="8" y="8" width="26" height="26" filterUnits="userSpaceOnUse">
      <feOffset dy="3" input="SourceAlpha"/>
      <feGaussianBlur stdDeviation="3" result="blur"/>
      <feFlood flood-opacity="0.161"/>
      <feComposite operator="in" in2="blur"/>
      <feComposite in="SourceGraphic"/>
    </filter>
    <filter id="路径_511" x="0" y="16" width="26" height="26" filterUnits="userSpaceOnUse">
      <feOffset dy="3" input="SourceAlpha"/>
      <feGaussianBlur stdDeviation="3" result="blur-2"/>
      <feFlood flood-opacity="0.161"/>
      <feComposite operator="in" in2="blur-2"/>
      <feComposite in="SourceGraphic"/>
    </filter>
    <filter id="矩形_535" x="16" y="16" width="26" height="26" filterUnits="userSpaceOnUse">
      <feOffset dy="3" input="SourceAlpha"/>
      <feGaussianBlur stdDeviation="3" result="blur-3"/>
      <feFlood flood-opacity="0.161"/>
      <feComposite operator="in" in2="blur-3"/>
      <feComposite in="SourceGraphic"/>
    </filter>
    <filter id="路径_510" x="16" y="0" width="26" height="26" filterUnits="userSpaceOnUse">
      <feOffset dy="3" input="SourceAlpha"/>
      <feGaussianBlur stdDeviation="3" result="blur-4"/>
      <feFlood flood-opacity="0.161"/>
      <feComposite operator="in" in2="blur-4"/>
      <feComposite in="SourceGraphic"/>
    </filter>
  </defs>
  <g id="samllDown" transform="translate(-342 -993)">
    <g transform="matrix(1, 0, 0, 1, 342, 993)" filter="url(#路径_509)">
      <path id="路径_509-2" data-name="路径 509" d="M0,0H8V8H0Z" transform="translate(17 14)" fill="#fffdee"/>
    </g>
    <g transform="matrix(1, 0, 0, 1, 342, 993)" filter="url(#路径_511)">
      <path id="路径_511-2" data-name="路径 511" d="M0,0H8V8H0Z" transform="translate(9 22)" fill="#1d2d51"/>
    </g>
    <g transform="matrix(1, 0, 0, 1, 342, 993)" filter="url(#矩形_535)">
      <rect id="矩形_535-2" data-name="矩形 535" width="8" height="8" transform="translate(25 22)" fill="#79872f"/>
    </g>
    <g transform="matrix(1, 0, 0, 1, 342, 993)" filter="url(#路径_510)">
      <path id="路径_510-2" data-name="路径 510" d="M0,0H8V8H0Z" transform="translate(25 6)" fill="#1d2d51"/>
    </g>
  </g>
</svg>
