<svg xmlns="http://www.w3.org/2000/svg" xmlns:xlink="http://www.w3.org/1999/xlink" width="175" height="181" viewBox="0 0 175 181">
  <defs>
    <style>
      .cls-1 {
        fill: #1d2d51;
      }

      .cls-2 {
        filter: url(#tagblue);
      }
    </style>
    <filter id="tagblue" x="0" y="0" width="175" height="181" filterUnits="userSpaceOnUse">
      <feOffset dy="3" input="SourceAlpha"/>
      <feGaussianBlur stdDeviation="3" result="blur"/>
      <feFlood flood-color="#fff" flood-opacity="0.161"/>
      <feComposite operator="in" in2="blur"/>
      <feComposite in="SourceGraphic"/>
    </filter>
  </defs>
  <g class="cls-2" transform="matrix(1, 0, 0, 1, 0, 0)">
    <path id="tagblue-2" data-name="tagblue" class="cls-1" d="M344.29,270.24l-70.65-73.35c-3.14-3.26-6.28-4.89-10.99-4.89H207.7c-9.42,0-15.7,6.52-15.7,16.3v57.05a15.067,15.067,0,0,0,4.71,11.41l70.65,73.35c6.28,6.52,15.7,6.52,21.98,0l54.95-57.05A16.175,16.175,0,0,0,344.29,270.24ZM239.1,240.9a12,12,0,0,1-17.27,0,13.142,13.142,0,0,1,0-17.93,12,12,0,0,1,17.27,0A13.142,13.142,0,0,1,239.1,240.9Z" transform="translate(-183 -186)"/>
  </g>
</svg>
