<svg xmlns="http://www.w3.org/2000/svg" width="29" height="32" viewBox="0 0 29 32">
  <path id="texticon" d="M180.591,102.382H155.41a1.88,1.88,0,0,0-1.9,1.844v28.312a1.88,1.88,0,0,0,1.9,1.844h25.2a1.88,1.88,0,0,0,1.9-1.844v-28.29a1.835,1.835,0,0,0-.561-1.321,1.945,1.945,0,0,0-1.36-.545ZM165.5,129.344h-6.642a1.147,1.147,0,1,1,0-2.294h6.619a1.169,1.169,0,0,1,1.18,1.147,1.149,1.149,0,0,1-1.157,1.147Zm5.67-5.577H158.858a1.147,1.147,0,1,1,0-2.294h12.29a1.169,1.169,0,0,1,1.18,1.147,1.149,1.149,0,0,1-1.157,1.147Zm5.67-7.376a.586.586,0,0,1-.44.023l-3.749-1.552a.757.757,0,0,0-.625,0l-3.68,1.574a.525.525,0,0,1-.347-.045.5.5,0,0,1-.139-.292V104.293h9.119v11.739a.428.428,0,0,1-.139.36Z" transform="translate(-153.512 -102.381)" fill="#1d2d51"/>
</svg>
